<?xml version="1.0" standalone="no"?>
<!DOCTYPE svg PUBLIC "-//W3C//DTD SVG 20010904//EN"
 "http://www.w3.org/TR/2001/REC-SVG-20010904/DTD/svg10.dtd">
<svg version="1.0" xmlns="http://www.w3.org/2000/svg"
 width="1024.000000pt" height="1024.000000pt" viewBox="0 0 1024.000000 1024.000000"
 preserveAspectRatio="xMidYMid meet">
<metadata>
Created by potrace 1.11, written by Peter Selinger 2001-2013
</metadata>
<g transform="translate(0.000000,1024.000000) scale(0.100000,-0.100000)"
fill="#000000" stroke="none">
<path d="M2170 9653 c-625 -43 -927 -124 -1245 -334 -152 -100 -231 -182 -289
-300 -80 -163 -118 -350 -136 -664 -16 -292 -24 -3124 -11 -3985 14 -967 49
-2901 55 -3135 6 -195 20 -283 61 -373 29 -63 57 -97 96 -117 32 -17 229 -32
540 -41 l235 -7 31 39 c92 119 317 474 1048 1659 615 996 2068 3189 2368 3573
214 275 427 511 541 601 126 100 202 117 261 58 44 -44 50 -91 35 -264 -31
-359 -192 -1490 -305 -2147 -84 -483 -145 -755 -435 -1946 -312 -1279 -358
-1494 -341 -1572 12 -51 53 -95 106 -111 71 -21 1889 -6 2775 23 516 17 983
46 1210 76 506 65 875 227 955 418 39 92 44 614 20 1981 -10 555 -16 1623 -19
3015 -3 2094 -8 2441 -36 2670 -17 138 -48 248 -102 359 -105 219 -283 335
-558 365 -112 12 -1596 53 -2755 76 -526 10 -649 14 -1735 50 -1113 37 -1272
40 -1800 38 -289 -1 -545 -3 -570 -5z m3925 -677 c40 -17 75 -68 75 -110 0
-60 -117 -136 -210 -136 -65 0 -120 66 -120 145 0 86 149 145 255 101z m-1978
-51 c2 -22 6 -73 9 -113 l6 -72 47 34 c26 20 61 40 77 46 26 10 31 9 51 -17
13 -15 23 -32 23 -38 -1 -5 -30 -32 -65 -60 -35 -27 -62 -51 -60 -53 2 -2 32
-10 67 -17 110 -24 120 -29 116 -72 l-3 -38 -102 -3 c-57 -1 -103 -7 -103 -12
0 -18 41 -103 70 -145 16 -24 30 -50 30 -59 0 -14 -93 -56 -124 -56 -8 0 -28
34 -46 78 -31 73 -68 152 -76 161 -3 3 -27 -17 -54 -44 l-50 -49 -40 39 c-22
21 -40 42 -40 45 0 4 21 22 47 41 l48 34 -47 19 c-51 21 -65 47 -49 89 9 22
16 25 85 29 42 3 79 8 83 12 3 3 1 49 -6 101 -7 52 -9 104 -6 116 8 23 59 50
90 46 16 -2 21 -10 22 -42z m3281 -178 c12 -13 25 -39 28 -59 5 -30 2 -41 -19
-62 -54 -54 -154 -25 -173 49 -21 83 100 136 164 72z m-4804 -429 c14 -40 30
-92 36 -115 9 -35 15 -43 34 -43 20 0 27 9 41 48 26 71 40 86 80 86 54 0 58
-12 30 -82 -14 -34 -25 -63 -25 -65 0 -2 38 -1 85 1 l85 5 15 -36 c31 -74 24
-81 -80 -92 -97 -10 -104 -12 -98 -35 7 -27 -14 -76 -43 -99 l-24 -19 20 -57
c11 -32 20 -78 20 -101 0 -46 -10 -57 -71 -74 -32 -9 -28 -18 -65 135 -9 39
-19 72 -21 74 -2 3 -26 -21 -53 -51 -70 -78 -112 -104 -148 -89 -30 12 -82 57
-82 69 0 4 34 41 75 82 41 41 75 77 75 80 0 3 -45 3 -99 2 l-100 -4 -6 36
c-10 52 -3 62 62 84 46 16 54 21 38 27 -67 24 -75 29 -75 47 0 26 27 82 49
102 16 14 22 14 67 -3 27 -10 59 -22 71 -25 l22 -7 -20 47 c-12 26 -25 60 -30
76 -8 28 -5 31 34 48 67 31 72 28 101 -52z m3746 -204 c115 -20 281 -77 351
-119 78 -48 160 -140 204 -228 61 -123 79 -292 44 -420 l-10 -38 -107 109
c-129 131 -213 203 -388 333 -165 123 -283 199 -408 264 -52 28 -96 53 -96 57
0 17 88 50 149 57 82 8 151 4 261 -15z m1512 -55 c54 -29 77 -182 39 -264 -42
-91 -129 -127 -216 -91 -47 20 -75 69 -75 131 0 65 27 121 79 168 68 61 127
80 173 56z m-2477 -89 c33 -6 107 -25 165 -41 694 -188 1146 -524 1410 -1049
102 -204 147 -371 138 -521 -5 -80 -39 -199 -57 -199 -4 0 -57 84 -116 188
-153 265 -247 412 -264 412 -21 0 -80 -39 -92 -61 -8 -16 -4 -27 19 -57 75
-94 348 -527 377 -596 l15 -36 -37 -15 c-81 -34 -72 -40 -158 112 -81 142
-222 379 -266 445 -31 49 -42 52 -96 28 l-45 -20 18 -27 c110 -168 344 -561
344 -580 0 -14 -96 -19 -116 -5 -6 4 -78 115 -159 247 -81 132 -148 242 -151
244 -5 5 -63 -20 -70 -30 -2 -4 34 -76 81 -159 135 -238 168 -304 151 -308
-14 -3 -286 102 -400 154 l-53 24 13 65 c40 189 54 408 33 505 -13 61 -131
246 -179 280 -43 31 -112 50 -180 50 -144 0 -382 -97 -525 -214 l-80 -65 -38
42 c-114 126 -247 325 -296 444 -44 108 -55 165 -47 267 22 318 138 473 371
495 72 7 207 -2 290 -19z m3204 -514 c57 -30 69 -126 25 -205 -43 -80 -112
-101 -181 -56 -37 25 -66 97 -58 146 7 43 54 105 89 119 33 14 95 11 125 -4z
m-6481 -579 c2 -18 -11 -56 -37 -106 -99 -192 -114 -392 -44 -586 24 -66 111
-227 265 -488 38 -65 67 -122 63 -125 -4 -4 -55 -7 -113 -6 -87 1 -122 6 -188
27 -211 69 -367 243 -445 497 -33 105 -33 266 -2 365 58 183 211 344 408 429
72 31 89 30 93 -7z m1639 -57 c66 -40 86 -109 59 -204 -29 -100 -105 -164
-180 -152 -133 21 -199 180 -124 294 50 75 173 106 245 62z m4695 -398 c4 -4
4 -22 -2 -40 -14 -50 -24 -172 -14 -172 5 0 51 34 102 75 51 41 101 75 110 75
21 0 82 -36 82 -49 0 -5 -60 -67 -134 -138 l-134 -128 8 -60 c5 -33 9 -106 9
-163 1 -115 1 -115 -73 -116 l-41 -1 -12 80 c-7 44 -15 101 -18 127 l-6 47
-47 -57 c-55 -68 -81 -91 -104 -92 -16 0 -78 74 -78 95 0 6 31 37 70 69 67 56
78 76 43 76 -9 0 -45 5 -80 11 l-63 11 0 50 0 49 107 -3 108 -3 8 55 c19 135
27 174 43 197 14 23 21 25 62 19 25 -3 50 -10 54 -14z m-1737 -1127 c18 -17
25 -35 25 -62 -1 -42 -13 -63 -47 -81 -77 -41 -150 37 -109 116 30 57 89 70
131 27z m596 -751 l32 -94 38 60 c40 63 41 64 102 54 46 -8 47 -20 7 -90 l-29
-53 32 -6 c141 -27 147 -31 128 -95 -13 -44 -18 -46 -123 -56 -49 -4 -78 -11
-78 -18 0 -6 14 -47 31 -91 17 -44 36 -105 44 -137 12 -52 11 -58 -5 -73 -10
-9 -36 -19 -57 -22 l-38 -5 -28 94 c-16 51 -34 106 -41 122 l-12 29 -71 -112
c-40 -61 -79 -114 -87 -117 -18 -7 -96 32 -96 48 0 6 17 32 38 57 41 49 66 90
60 97 -3 2 -28 8 -57 14 -29 5 -57 12 -62 15 -11 8 -12 95 0 113 4 8 33 17 62
21 l54 7 -52 33 c-48 30 -53 36 -53 69 0 58 10 66 71 58 30 -4 64 -10 76 -12
l21 -6 -20 66 c-11 37 -18 77 -14 89 6 27 65 59 83 45 6 -5 26 -51 44 -104z
m-5183 -135 c57 -20 80 -85 62 -173 -23 -114 -101 -188 -198 -188 -61 0 -93
25 -115 92 -35 103 7 205 104 254 57 28 98 32 147 15z m6267 -854 c18 -17 25
-35 25 -62 -1 -42 -13 -63 -47 -81 -77 -41 -150 37 -109 116 30 57 89 70 131
27z m-1668 -747 c15 -14 23 -33 23 -55 0 -47 -16 -72 -55 -89 -89 -37 -151 70
-83 143 28 30 83 31 115 1z m-320 -740 c11 -13 38 -49 59 -81 l38 -58 14 28
c27 52 43 64 76 57 17 -3 32 -7 34 -9 1 -1 -7 -42 -18 -91 -11 -49 -23 -99
-25 -110 -4 -18 4 -25 58 -44 79 -29 150 -64 165 -83 8 -10 10 -29 6 -57 l-7
-41 -41 6 c-22 3 -54 9 -69 11 -28 6 -28 6 -22 -38 6 -48 0 -62 -30 -72 -17
-5 -32 7 -79 64 -32 38 -62 70 -65 70 -4 0 -13 -17 -20 -37 -7 -21 -25 -64
-39 -96 l-25 -58 -41 6 c-101 15 -95 10 -89 68 l5 52 -35 13 c-41 15 -55 45
-64 139 -8 88 -2 93 113 93 71 0 94 3 94 13 0 7 -18 61 -40 120 -22 58 -40
110 -40 116 0 12 40 41 55 41 7 0 21 -10 32 -22z m2016 -139 c32 -40 16 -117
-30 -138 -38 -18 -72 -13 -98 14 -14 13 -25 36 -25 50 0 32 24 80 47 95 26 15
85 4 106 -21z"/>
<path d="M5075 7720 c-76 -25 -134 -73 -164 -139 -24 -50 -24 -51 -6 -92 21
-45 54 -73 81 -67 9 2 29 26 44 53 15 28 42 61 61 74 31 21 41 23 115 17 103
-7 120 2 111 64 -13 97 -111 133 -242 90z"/>
<path d="M3133 3078 c-18 -5 -37 -16 -42 -26 -11 -20 5 -113 38 -224 17 -59
18 -68 4 -79 -8 -7 -27 -36 -41 -63 -23 -44 -27 -63 -27 -136 1 -74 5 -93 30
-145 34 -70 103 -141 167 -173 l45 -22 5 -73 c10 -130 64 -230 145 -264 28
-11 33 -19 33 -46 1 -51 19 -288 26 -335 7 -50 36 -68 91 -57 l33 6 0 196 0
195 27 -7 c16 -4 29 -8 31 -10 4 -3 31 -268 32 -302 0 -53 78 -83 116 -46 17
18 17 77 -2 270 l-7 61 95 1 c51 0 127 7 167 16 40 9 75 14 78 11 3 -3 8 -81
11 -173 2 -92 8 -178 13 -190 7 -19 16 -23 52 -23 81 0 82 1 86 228 l3 200 28
27 28 27 6 -109 c14 -233 16 -243 41 -243 12 0 34 9 49 21 l26 20 0 185 c0
161 2 190 19 222 24 49 41 177 41 320 0 107 25 441 35 470 3 7 47 33 99 58 52
24 96 51 99 59 11 27 -18 99 -45 114 -22 13 -35 13 -109 -2 -91 -18 -176 -42
-197 -55 -21 -14 -32 -123 -32 -329 l0 -191 -86 34 c-47 19 -138 48 -202 65
-101 27 -129 30 -207 26 -54 -3 -113 -13 -149 -26 -33 -12 -61 -21 -63 -21 -1
0 -3 25 -3 55 0 31 -7 72 -15 92 l-15 36 55 54 c59 55 88 109 100 181 8 49 -5
72 -41 72 -18 0 -36 -17 -73 -68 -36 -49 -65 -76 -103 -97 -48 -27 -64 -30
-166 -33 -62 -2 -132 -1 -156 2 -42 7 -44 8 -55 54 -29 116 -53 182 -69 190
-10 5 -31 5 -49 0z m411 -402 c26 -11 38 -25 51 -60 23 -60 14 -106 -30 -151
-58 -58 -195 -83 -285 -52 -45 15 -80 80 -80 148 0 40 5 51 30 72 17 15 53 30
82 36 29 5 62 12 73 14 44 10 128 6 159 -7z m621 -252 c80 -16 164 -61 193
-101 45 -65 54 -151 23 -218 -23 -50 -43 -68 -111 -98 -158 -70 -356 -82 -540
-33 -201 53 -284 129 -250 230 31 95 277 218 469 235 86 8 116 6 216 -15z"/>
</g>
</svg>
